<?xml version="1.0" encoding="UTF-8" standalone="no"?>
<!-- Created with Inkscape (http://www.inkscape.org/) -->

<svg
   width="210mm"
   height="297mm"
   viewBox="0 0 210 297"
   version="1.1"
   id="svg370"
   inkscape:version="1.2 (dc2aedaf03, 2022-05-15)"
   sodipodi:docname="advantage.svg"
   xmlns:inkscape="http://www.inkscape.org/namespaces/inkscape"
   xmlns:sodipodi="http://sodipodi.sourceforge.net/DTD/sodipodi-0.dtd"
   xmlns="http://www.w3.org/2000/svg"
   xmlns:svg="http://www.w3.org/2000/svg">
  <sodipodi:namedview
     id="namedview372"
     pagecolor="#ffffff"
     bordercolor="#666666"
     borderopacity="1.0"
     inkscape:showpageshadow="2"
     inkscape:pageopacity="0.0"
     inkscape:pagecheckerboard="0"
     inkscape:deskcolor="#d1d1d1"
     inkscape:document-units="mm"
     showgrid="false"
     inkscape:zoom="0.914906"
     inkscape:cx="396.76207"
     inkscape:cy="560.71334"
     inkscape:window-width="3840"
     inkscape:window-height="2126"
     inkscape:window-x="-11"
     inkscape:window-y="-11"
     inkscape:window-maximized="1"
     inkscape:current-layer="layer1" />
  <defs
     id="defs367" />
  <g
     inkscape:label="Layer 1"
     inkscape:groupmode="layer"
     id="layer1">
    <g
       id="g337"
       transform="translate(-116.53911,-13.110925)">
      <path
         style="fill:#000000;stroke-width:0.264583"
         d="M 152.32303,76.641994 V 63.284533 l -7.69835,-0.07014 -7.69835,-0.07014 13.16449,-17.807742 c 10.72957,-14.514008 13.22673,-17.743886 13.50102,-17.462501 0.18509,0.189883 6.11309,8.233132 13.17334,17.873888 L 189.602,63.27654 h -7.79157 -7.79157 v 13.361459 13.361459 h -10.84792 -10.84791 z m 14.2875,-10.71962 v -5.291667 h 5.15937 5.15938 V 57.191123 53.75154 h -5.15938 -5.15937 V 48.592165 43.43279 h -3.43959 -3.43958 v 5.159375 5.159375 h -5.15938 -5.15937 v 3.439583 3.439584 h 5.15937 5.15938 v 5.291667 5.291667 h 3.43958 3.43959 z m 10.05597,17.420635 0.002,-3.794593 0.98619,-0.661459 c 3.39467,-2.276869 7.07881,-6.874515 8.68231,-10.835127 l 0.80857,-1.997165 3.35862,-0.07405 c 2.59224,-0.05715 3.35783,0.0032 3.3552,0.264583 -0.008,0.809562 -1.16456,3.969854 -2.27798,6.225456 -2.75198,5.575017 -7.64942,10.672445 -13.16825,13.705975 l -1.74832,0.960975 0.002,-3.794594 z m -28.84139,2.644222 c -5.20869,-2.978946 -10.04343,-8.07916 -12.71115,-13.409102 -1.05755,-2.11292 -2.3701,-5.609095 -2.3701,-6.313128 0,-0.286596 0.6734,-0.343596 3.35986,-0.284387 l 3.35985,0.07405 0.93962,2.138916 c 1.78761,4.069212 4.12456,7.136424 7.47282,9.807948 l 1.80118,1.437135 v 3.692896 c 0,2.031095 -0.0893,3.691781 -0.19843,3.690416 -0.10915,-0.0013 -0.85329,-0.377002 -1.65365,-0.834745 z M 131.97727,63.188722 c -0.41812,-2.401046 -0.35965,-7.655552 0.11552,-10.380363 1.80914,-10.374402 9.58078,-19.788896 19.56069,-23.695651 2.46574,-0.965242 7.96672,-2.283442 8.26872,-1.981435 0.0731,0.07311 -1.1456,1.871986 -2.70823,3.997507 l -2.84116,3.864584 -2.14937,1.047996 c -5.059,2.466683 -8.9067,6.375979 -11.63661,11.822907 -1.07881,2.152512 -1.70862,4.244502 -2.13084,7.077898 -0.31438,2.109642 -0.32491,2.129616 -3.17221,6.019271 -1.57122,2.146432 -2.89232,3.902604 -2.93577,3.902604 -0.0434,0 -0.21028,-0.753893 -0.37074,-1.675318 z m 59.11753,-2.177737 c -2.86988,-3.921086 -2.87748,-3.935495 -3.19671,-6.057961 -0.43235,-2.87455 -1.05654,-4.91139 -2.24575,-7.328242 -2.65325,-5.392297 -6.2202,-8.995659 -11.6955,-11.814909 -1.83038,-0.942469 -1.9936,-1.110278 -4.74526,-4.878646 -1.56733,-2.146433 -2.69126,-3.902604 -2.49763,-3.902604 0.19363,0 1.55963,0.246286 3.03555,0.547303 5.21797,1.064215 10.63599,3.833073 14.65139,7.487533 4.23144,3.851081 7.86005,9.796643 9.387,15.380789 0.6758,2.471468 0.72273,2.985844 0.71202,7.805209 -0.006,2.837656 -0.12778,5.504206 -0.26993,5.925669 -0.25544,0.757322 -0.29215,0.720278 -3.13518,-3.164141 z"
         id="path235" />
    </g>
  </g>
</svg>
