<?xml version="1.0" encoding="UTF-8" standalone="no"?>
<!-- Created with Inkscape (http://www.inkscape.org/) -->

<svg
   width="64.439079mm"
   height="62.697235mm"
   viewBox="0 0 64.439079 62.697235"
   version="1.1"
   id="svg4413"
   inkscape:version="1.2 (dc2aedaf03, 2022-05-15)"
   sodipodi:docname="att_r.svg"
   xmlns:inkscape="http://www.inkscape.org/namespaces/inkscape"
   xmlns:sodipodi="http://sodipodi.sourceforge.net/DTD/sodipodi-0.dtd"
   xmlns="http://www.w3.org/2000/svg"
   xmlns:svg="http://www.w3.org/2000/svg">
  <sodipodi:namedview
     id="namedview4415"
     pagecolor="#ffffff"
     bordercolor="#666666"
     borderopacity="1.0"
     inkscape:showpageshadow="2"
     inkscape:pageopacity="0.0"
     inkscape:pagecheckerboard="0"
     inkscape:deskcolor="#d1d1d1"
     inkscape:document-units="mm"
     showgrid="false"
     inkscape:zoom="0.914906"
     inkscape:cx="149.74216"
     inkscape:cy="344.29766"
     inkscape:window-width="3840"
     inkscape:window-height="2126"
     inkscape:window-x="-11"
     inkscape:window-y="-11"
     inkscape:window-maximized="1"
     inkscape:current-layer="layer1" />
  <defs
     id="defs4410" />
  <g
     inkscape:label="Layer 1"
     inkscape:groupmode="layer"
     id="layer1"
     transform="translate(-65.238104,-57.144079)">
    <g
       id="g340"
       transform="translate(-30.108382,-46.988391)"
       style="fill:#ff0000">
      <path
         style="fill:#ff0000;stroke-width:0.264583"
         d="m 123.30031,166.67381 c -0.70545,-0.12706 -1.32985,-0.27823 -1.38756,-0.33594 -0.0577,-0.0577 1.71009,-1.41758 3.92846,-3.02194 3.90382,-2.82328 4.08865,-2.92292 5.75319,-3.10123 8.17187,-0.87539 15.94787,-6.59953 19.56569,-14.40289 0.58329,-1.25813 1.04152,-1.68822 4.59116,-4.30917 2.16876,-1.60135 3.97469,-2.87413 4.01319,-2.8284 0.2136,0.25373 -1.2467,6.48618 -1.94202,8.28833 -2.62089,6.79297 -8.50858,13.21783 -15.18121,16.56632 -5.24601,2.63256 -7.41127,3.16192 -13.42806,3.28286 -2.54661,0.0512 -5.20739,-0.0109 -5.91284,-0.13794 z m -5.06737,-1.15863 c -7.15865,-2.3303 -13.86114,-7.96089 -17.75757,-14.9177 l -0.926195,-1.65365 h 3.799915 3.79991 l 1.44093,1.89614 c 2.47825,3.26115 6.47299,6.30375 10.23507,7.79555 l 1.91497,0.75936 0.003,3.37343 c 0.002,2.53035 -0.0794,3.37048 -0.32747,3.3616 -0.1819,-0.007 -1.16416,-0.28314 -2.18281,-0.61473 z m 5.15938,-11.42455 V 146.298 H 109.3694 95.346486 v -10.98021 -10.98021 h 14.022914 14.02292 v -7.54062 c 0,-4.14734 0.0684,-7.54063 0.15202,-7.54063 0.19102,0 35.51802,25.90088 35.6763,26.15698 0.0639,0.1034 -7.97133,6.10143 -17.85607,13.32897 l -17.97225,13.14098 z m 18.35286,-8.60558 c 0.38343,-0.30161 0.69714,-0.64341 0.69714,-0.75958 0,-0.11616 -0.74414,-0.2934 -1.65365,-0.39387 -2.87342,-0.31741 -2.71939,-0.19174 -3.86516,-3.15324 -1.169,-3.0215 -1.00434,-2.92251 -4.13848,-2.48814 l -1.32292,0.18335 2.02737,-1.91018 2.02736,-1.91018 0.47161,-3.12743 c 0.43074,-2.85647 0.53016,-3.15839 1.14763,-3.48487 l 0.67603,-0.35744 0.26649,1.76508 0.26648,1.76508 1.40495,0.75391 c 0.77272,0.41465 1.47038,0.68848 1.55036,0.6085 0.08,-0.08 0.0422,-1.84799 -0.0839,-3.92892 l -0.22935,-3.78349 -3.64196,-0.62172 -3.64195,-0.62171 -3.03163,2.55796 -3.03162,2.55797 -2.58684,0.23449 c -2.10874,0.19115 -19.26046,0.70228 -27.589958,0.82218 -1.091406,0.0157 4.013798,0.54166 11.344908,1.16877 7.3311,0.62711 13.41713,1.23802 13.52451,1.35759 0.10737,0.11956 0.39446,2.24144 0.63796,4.7153 0.24351,2.47385 0.50702,4.82534 0.58558,5.22552 l 0.14284,0.7276 h 2.35776 c 2.07229,0 2.65437,0.11472 4.80762,0.94751 1.61227,0.62356 3.35446,1.06457 5.0957,1.28991 4.01451,0.51952 4.97635,0.49625 5.78515,-0.13995 z m 2.25995,-1.85231 c 1.4031,-0.30091 1.80562,-0.80641 1.47402,-1.85117 -0.15758,-0.49649 -0.35086,-0.54073 -2.06835,-0.47338 -1.04199,0.0409 -2.52603,-0.0833 -3.29787,-0.27589 -0.77183,-0.1926 -1.45322,-0.3003 -1.51418,-0.23934 -0.061,0.061 0.008,0.54118 0.15322,1.06716 0.24222,0.87725 0.40023,0.99951 1.91105,1.47856 2.05922,0.65293 1.78238,0.62857 3.34211,0.29406 z m -22.33133,-2.42797 c -0.39523,-1.96369 0.42787,-1.78989 -8.28733,-1.74991 -4.31944,0.0198 -7.58607,0.0876 -7.25919,0.15057 1.99611,0.38467 14.59457,2.41655 15.10325,2.43585 0.55724,0.0211 0.59974,-0.0591 0.44327,-0.83651 z m 24.78546,-1.48822 c 0.19227,-0.17623 0.32555,-1.18611 0.25754,-1.95136 -0.0359,-0.40386 -0.35386,-0.46427 -2.48854,-0.47275 -1.34607,-0.005 -3.25687,-0.16637 -4.24624,-0.35783 l -1.79884,-0.34811 0.079,1.19288 0.0791,1.19288 1.5875,0.60887 c 1.38559,0.53143 1.89036,0.58928 3.96875,0.45486 1.30969,-0.0847 2.46246,-0.22845 2.56173,-0.31944 z m -24.79785,-3.14199 c -0.35783,-2.12111 0.72552,-1.92168 -10.25932,-1.8886 l -9.8379,0.0296 9.39271,1.39594 c 5.16599,0.76777 9.72553,1.40928 10.1323,1.42558 0.71143,0.0285 0.73322,-0.008 0.57221,-0.96256 z m 24.61737,-0.56159 1.5875,-0.16601 0.0788,-1.65538 c 0.0933,-1.95903 0.032,-2.00371 -3.15078,-2.29782 l -2.01362,-0.18607 -0.16919,0.84593 c -0.0931,0.46527 -0.16919,1.18825 -0.16919,1.60662 0,0.41837 -0.0691,0.76068 -0.15347,0.76068 -0.0844,0 -1.16546,-0.35719 -2.40233,-0.79375 -1.23687,-0.43657 -2.29891,-0.79375 -2.36007,-0.79375 -0.0612,0 -0.11121,0.27164 -0.11121,0.60365 0,0.48572 0.37458,0.78887 1.91739,1.55179 2.05992,1.01861 2.15132,1.02551 6.94615,0.52411 z m 0.96741,-5.48713 c 0.79847,-0.15224 1.14489,-1.03475 0.87985,-2.24147 -0.19296,-0.87853 -0.36846,-0.94237 -3.23632,-1.17725 l -2.18282,-0.17878 v 2.03877 2.03876 l 1.91823,-0.17301 c 1.05503,-0.0952 2.23451,-0.23332 2.62106,-0.30702 z m 8.36457,-1.16448 c -3.74461,-2.78151 -3.9273,-2.96124 -4.66623,-4.59092 -2.19543,-4.84192 -6.47796,-9.18537 -11.6117,-11.77687 -1.99997,-1.00958 -5.57951,-2.07734 -7.73843,-2.30833 -1.66535,-0.17818 -1.8481,-0.2768 -5.77296,-3.11533 -3.95925,-2.8634 -4.03589,-2.93718 -3.30729,-3.18432 0.41023,-0.13915 3.0676,-0.25306 5.90525,-0.25312 4.76156,-1.1e-4 5.36339,0.0546 7.80521,0.70903 5.67112,1.51999 11.63461,5.16273 15.49199,9.46314 3.29719,3.67588 6.03325,8.5076 6.99,12.34393 0.59165,2.37236 1.15262,5.62753 0.968,5.61707 -0.0917,-0.005 -1.92039,-1.31212 -4.06384,-2.90428 z m -55.766358,-7.82353 c 0,-0.0846 0.413048,-0.85867 0.917878,-1.72004 3.12995,-5.34044 7.5821,-9.61308 12.97275,-12.44971 2.03316,-1.06987 6.03397,-2.60966 6.78064,-2.60966 0.12695,0 0.23082,1.52011 0.23082,3.37801 v 3.37802 l -1.65365,0.65639 c -3.86815,1.5354 -8.18478,4.78287 -10.51719,7.91227 l -1.19062,1.59747 -3.77031,0.006 c -2.07368,0.003 -3.770318,-0.0637 -3.770318,-0.14833 z"
         id="path207" />
    </g>
  </g>
</svg>
