<?xml version="1.0" encoding="UTF-8" standalone="no"?>
<!-- Created with Inkscape (http://www.inkscape.org/) -->

<svg
   width="62.195587mm"
   height="63.974724mm"
   viewBox="0 0 62.195587 63.974724"
   version="1.1"
   id="svg4459"
   inkscape:version="1.2 (dc2aedaf03, 2022-05-15)"
   sodipodi:docname="def_r.svg"
   xmlns:inkscape="http://www.inkscape.org/namespaces/inkscape"
   xmlns:sodipodi="http://sodipodi.sourceforge.net/DTD/sodipodi-0.dtd"
   xmlns="http://www.w3.org/2000/svg"
   xmlns:svg="http://www.w3.org/2000/svg">
  <sodipodi:namedview
     id="namedview4461"
     pagecolor="#ffffff"
     bordercolor="#666666"
     borderopacity="1.0"
     inkscape:showpageshadow="2"
     inkscape:pageopacity="0.0"
     inkscape:pagecheckerboard="0"
     inkscape:deskcolor="#d1d1d1"
     inkscape:document-units="mm"
     showgrid="false"
     inkscape:zoom="0.914906"
     inkscape:cx="-132.25402"
     inkscape:cy="100.55678"
     inkscape:window-width="3840"
     inkscape:window-height="2126"
     inkscape:window-x="-11"
     inkscape:window-y="-11"
     inkscape:window-maximized="1"
     inkscape:current-layer="layer1" />
  <defs
     id="defs4456" />
  <g
     inkscape:label="Layer 1"
     inkscape:groupmode="layer"
     id="layer1"
     transform="translate(-140.10376,-121.86269)">
    <g
       id="g343"
       transform="translate(131.78145,13.297022)"
       style="fill:#ff0000">
      <path
         style="fill:#ff0000;stroke-width:0.264583"
         d="m 33.862259,170.35759 c -2.360753,-2.93346 -4.68487,-6.57108 -6.550382,-10.25241 -1.490578,-2.94145 -3.09565,-6.8147 -2.900689,-6.99974 0.05229,-0.0496 2.357261,-0.71347 5.122157,-1.47519 2.764896,-0.76173 5.173242,-1.44038 5.351878,-1.50813 0.247885,-0.094 0.341865,1.04135 0.396875,4.79458 l 0.07208,4.91775 5.879537,-6.54537 5.879537,-6.54536 -0.0019,-6.61458 -0.0019,-6.61459 -5.877787,-6.54552 -5.877582,-6.54552 -0.07204,4.90783 c -0.06621,4.51091 -0.109014,4.89617 -0.529167,4.76358 -1.680128,-0.5302 -10.995486,-3.06223 -11.048959,-3.00325 -0.03634,0.0401 1.576508,1.4421 3.584104,3.11559 l 3.650174,3.04271 -4.245564,0.0729 c -2.335061,0.0401 -4.307056,0.0114 -4.382212,-0.0638 -0.213805,-0.2138 1.384379,-20.98177 1.633834,-21.23122 0.03631,-0.0363 1.794678,0.28175 3.907482,0.70681 8.468657,1.70376 12.627053,2.2018 19.408602,2.32455 4.699651,0.0851 7.338753,0.006 10.154394,-0.30601 2.092417,-0.23152 3.908121,-0.42095 4.034896,-0.42095 0.569036,0 0.09137,11.94402 -0.846495,21.16667 -0.943949,9.28245 -2.494592,14.98591 -5.464644,20.09965 -2.876674,4.95297 -7.454979,9.74902 -12.744892,13.35104 -2.001846,1.3631 -6.079033,3.59125 -6.570615,3.59078 -0.112371,-1.1e-4 -0.994738,-0.98237 -1.960814,-2.18281 z m 11.162419,-0.1089 c 4.150305,-2.99996 7.855607,-6.6919 10.544599,-10.50657 0.910101,-1.29109 2.299949,-3.12967 3.088556,-4.08573 1.789713,-2.16976 3.543294,-5.54314 4.495519,-8.64809 0.671293,-2.18889 0.72806,-2.71252 0.702765,-6.48229 -0.01513,-2.25557 -0.03861,-5.94651 -0.05216,-8.20208 -0.01355,-2.25557 0.06861,-5.76159 0.182583,-7.79115 l 0.207225,-3.6901 1.37627,2.1026 c 1.808004,2.76219 3.134352,5.69928 4.115787,9.11407 0.762521,2.65311 0.799706,3.01624 0.826352,8.06979 0.02638,5.00204 -0.01193,5.43648 -0.700085,7.9375 -2.619164,9.51926 -9.595853,17.48528 -18.582908,21.21806 -2.083475,0.86538 -6.779096,2.19756 -7.745839,2.19756 -0.09089,0 0.602716,-0.5551 1.541338,-1.23357 z m -16.417375,-0.32662 c -9.397819,-3.50798 -16.950871,-11.44113 -19.5860922,-20.57174 -0.2582231,-0.8947 -0.5489187,-1.87697 -0.6459906,-2.18282 -0.1731338,-0.54549 -0.111321,-0.55608 3.2466108,-0.55608 h 3.423104 l 0.725566,2.05052 c 1.370729,3.87381 4.258137,8.05492 7.163774,10.37349 1.168282,0.93224 1.716988,1.65487 2.696209,3.55082 0.676182,1.30921 2.095502,3.6678 3.154045,5.24132 1.058544,1.57351 1.898192,2.85514 1.865887,2.84807 -0.03231,-0.007 -0.951707,-0.34619 -2.043113,-0.75358 z m -4.497917,-17.33879 c 0,-0.075 -0.29657,-1.30049 -0.659045,-2.72336 -0.362474,-1.42287 -0.660131,-2.73586 -0.661458,-2.91776 -0.0018,-0.25157 1.026756,-0.3281 4.297066,-0.31972 l 4.299479,0.011 -1.007807,0.89042 c -1.82235,1.6101 -6.268235,5.1986 -6.268235,5.05941 z M 8.4989688,133.0868 c 0,-0.17119 0.3647421,-1.45467 0.8105378,-2.85217 1.6449164,-5.15655 5.1702364,-10.47676 9.3253164,-14.07322 1.165215,-1.00856 2.173297,-1.77903 2.240184,-1.71214 0.06689,0.0669 -0.03052,2.17911 -0.216458,4.69383 l -0.338071,4.57222 -1.732798,2.50268 c -1.057389,1.52719 -2.064675,3.38539 -2.584247,4.76732 l -0.851448,2.26465 -3.326508,0.074 c -2.4158637,0.0538 -3.3265082,-0.0112 -3.3265082,-0.23722 z M 40.778137,112.18456 C 38.479,111.9216 29.051529,110.36676 28.91235,110.22759 c -0.05163,-0.0516 0.364624,-0.21331 0.925016,-0.35927 0.560393,-0.14596 1.73327,-0.45395 2.606395,-0.68441 2.539104,-0.6702 9.273115,-0.83514 12.170834,-0.2981 2.859601,0.52998 5.892483,1.49795 8.440767,2.69395 l 1.877984,0.88141 -6.085417,-0.0248 c -3.34698,-0.0136 -6.978386,-0.12696 -8.069792,-0.25179 z"
         id="path221" />
    </g>
  </g>
</svg>
