<?xml version="1.0" encoding="UTF-8" standalone="no"?>
<!-- Created with Inkscape (http://www.inkscape.org/) -->

<svg
   width="63.067837mm"
   height="61.102627mm"
   viewBox="0 0 63.067837 61.102627"
   version="1.1"
   id="svg4367"
   inkscape:version="1.2 (dc2aedaf03, 2022-05-15)"
   sodipodi:docname="oc_r.svg"
   xmlns:inkscape="http://www.inkscape.org/namespaces/inkscape"
   xmlns:sodipodi="http://sodipodi.sourceforge.net/DTD/sodipodi-0.dtd"
   xmlns="http://www.w3.org/2000/svg"
   xmlns:svg="http://www.w3.org/2000/svg">
  <sodipodi:namedview
     id="namedview4369"
     pagecolor="#ffffff"
     bordercolor="#666666"
     borderopacity="1.0"
     inkscape:showpageshadow="2"
     inkscape:pageopacity="0.0"
     inkscape:pagecheckerboard="0"
     inkscape:deskcolor="#d1d1d1"
     inkscape:document-units="mm"
     showgrid="false"
     inkscape:zoom="0.914906"
     inkscape:cx="80.882626"
     inkscape:cy="323.5305"
     inkscape:window-width="3840"
     inkscape:window-height="2126"
     inkscape:window-x="-11"
     inkscape:window-y="-11"
     inkscape:window-maximized="1"
     inkscape:current-layer="layer1" />
  <defs
     id="defs4364" />
  <g
     inkscape:label="Layer 1"
     inkscape:groupmode="layer"
     id="layer1"
     transform="translate(-83.564427,-62.857646)">
    <g
       id="g285"
       transform="translate(40.775905,35.764904)"
       style="fill:#ff0000">
      <path
         style="fill:#ff0000;stroke-width:0.264583"
         d="M 55.601198,72.365026 V 56.534682 l 5.041418,-3.252835 5.041416,-3.252838 8.241763,2.292054 c 4.532968,1.260628 8.26045,2.317356 8.283289,2.348283 0.02283,0.03092 0.119658,0.749517 0.215149,1.596866 0.156826,1.391613 0.128389,1.527524 -0.293979,1.405075 -0.257178,-0.07456 -2.789317,-0.62842 -5.626973,-1.230802 -2.837656,-0.602379 -5.605632,-1.192188 -6.151054,-1.310687 l -0.99168,-0.215453 1.123971,1.284592 c 0.618183,0.706524 6.124596,6.699723 12.236471,13.318217 10.992718,11.903916 11.117289,12.027371 11.556759,11.453315 1.366166,-1.784551 1.257972,-2.023041 1.267119,2.793127 l 0.0084,4.431771 H 75.577239 55.601198 Z m -5.027083,7.24164 c -3.371783,-3.868512 -6.010271,-8.830291 -7.208086,-13.555077 -0.514925,-2.031127 -0.588879,-2.992332 -0.576236,-7.489556 0.01329,-4.728061 0.07357,-5.380561 0.721094,-7.805208 1.002203,-3.752765 3.467499,-8.498775 6.166306,-11.870928 4.66417,-5.827868 11.885783,-10.16075 19.00374,-11.402018 2.996261,-0.522504 8.157094,-0.521358 11.160998,0.0025 9.535541,1.662859 18.169474,8.237558 22.792279,17.356206 2.40744,4.748787 3.01346,7.281334 3.17212,13.256448 0.10211,3.845386 0.0594,4.697236 -0.23553,4.701212 -0.19812,0.0027 -1.68282,-0.315402 -3.29932,-0.706829 l -2.9391,-0.711687 -0.142394,-3.596962 C 99.076832,54.926341 98.900559,53.69973 98.331495,51.810846 95.845338,43.558574 89.804091,37.45926 81.398073,34.714663 c -2.565998,-0.837809 -2.781552,-0.863875 -7.14375,-0.863875 -4.362199,0 -4.577752,0.02607 -7.14375,0.863875 -8.406019,2.744597 -14.447266,8.843911 -16.933423,17.096183 -0.970245,3.220524 -1.211116,8.469812 -0.538907,11.744396 0.501438,2.4427 1.42537,5.083966 2.418226,6.913041 0.630456,1.16145 0.644525,1.315895 0.574157,6.302862 l -0.07214,5.112237 z m 47.635751,-2.201309 -0.01075,-1.926471 3.197474,-4.246708 c 1.75862,-2.335692 3.25914,-4.185058 3.33449,-4.109704 0.22285,0.222848 -0.90606,3.349871 -1.97646,5.474676 -1.10209,2.187699 -2.52547,4.399947 -3.737338,5.808633 l -0.796661,0.926042 -0.01074,-1.926468 z M 85.264045,68.179233 c -4.531783,-4.897001 -8.208036,-8.932656 -8.169455,-8.968121 0.03858,-0.03547 1.912546,0.332912 4.164367,0.818618 2.251819,0.485709 4.114639,0.86019 4.1396,0.832184 0.02495,-0.02801 -0.06476,-1.23538 -0.199369,-2.68305 -0.493612,-5.308428 -2.534587,-11.310345 -4.899234,-14.40723 -0.490321,-0.642156 -0.848275,-1.210776 -0.795451,-1.263599 0.05282,-0.05282 1.61051,0.263762 3.46153,0.703523 4.386268,1.042081 5.662403,1.904536 8.217593,5.553719 2.038056,2.910639 3.972219,8.172797 4.663279,12.687089 l 0.309223,2.01999 2.807431,0.633005 c 1.544091,0.348152 3.005631,0.701847 3.247861,0.785985 0.3503,0.121668 -0.46201,1.38344 -3.968745,6.164757 -2.425052,3.306477 -4.483399,6.015149 -4.574106,6.019271 -0.0907,0.0041 -3.872741,-3.999143 -8.404524,-8.896141 z M 57.982448,51.523543 c 0,-0.543484 2.440223,-4.372465 3.808791,-5.976418 2.625139,-3.076646 5.684155,-4.822187 9.023501,-5.149006 1.537139,-0.150438 2.496182,0.03967 6.45043,1.278658 l 0.894178,0.280174 -1.158769,0.721236 c -1.584976,0.986515 -3.427127,2.822734 -4.592111,4.577327 l -0.972005,1.463945 -2.824404,-0.767469 c -1.553421,-0.422108 -2.952593,-0.797137 -3.109272,-0.8334 -0.156678,-0.03626 -1.912848,0.969309 -3.902603,2.234602 -1.989755,1.265293 -3.617736,2.241952 -3.617736,2.170351 z"
         id="path193" />
    </g>
  </g>
</svg>
